<svg xmlns="http://www.w3.org/2000/svg" viewBox="0 0 140 99.79"><defs><style>.cls-1{fill:transparent;}.cls-2,.cls-4{fill:#f4930e;}.cls-2,.cls-3{stroke:#f4930e;stroke-miterlimit:10;}.cls-3{fill:none;stroke-width:3px;}</style></defs><g id="レイヤー_2" data-name="レイヤー 2"><g id="レイヤー_2-2" data-name="レイヤー 2"><rect class="cls-1" width="140" height="99.79"/><path class="cls-2" d="M70.79,93.67A43.5,43.5,0,0,1,34,73.62a.91.91,0,0,1,.26-1.24L39.23,69l-10-6.44,0,13.4L31,74.8a.91.91,0,1,1,1,1.51l-2.36,1.57c-.26.17-1.09.55-2.08-.78a.92.92,0,0,1-.19-.55l.05-15.62a.9.9,0,0,1,1.4-.76l11.9,7.68a.84.84,0,0,1,.3.32,1.42,1.42,0,0,1-.22,2l-4.77,3.24A41.85,41.85,0,0,0,111.84,58a.76.76,0,0,1,.06-.2l.26-.57A41.82,41.82,0,0,0,39.27,22.66,41.64,41.64,0,0,0,29.44,45a.91.91,0,1,1-1.8-.21,43.65,43.65,0,0,1,84.59-9.17,43.93,43.93,0,0,1,1.7,22,.86.86,0,0,1-.07.21l-.26.58a43.65,43.65,0,0,1-42.81,35.2Z"/><circle class="cls-3" cx="71.01" cy="49.99" r="25.21"/><path class="cls-4" d="M68.54,58.08H62.28a.56.56,0,0,1-.56-.57v-1a.57.57,0,0,1,.56-.57h6.26a.56.56,0,0,0,.56-.56V53.47a.56.56,0,0,0-.56-.56H62.28a.56.56,0,0,1-.56-.57v-1a.56.56,0,0,1,.56-.56h5a.56.56,0,0,0,.5-.82L61.11,36.91a.56.56,0,0,1,.5-.82h2.66a.56.56,0,0,1,.51.33L68.2,44c.9,2,1.77,4,2.75,6.2h.21C72.14,48,73,46,74,44l3.45-7.54a.59.59,0,0,1,.52-.33h2.49a.56.56,0,0,1,.5.82L74.2,50a.57.57,0,0,0,.51.83h5a.56.56,0,0,1,.56.56v1a.56.56,0,0,1-.56.57H73.4a.56.56,0,0,0-.56.56v1.87a.56.56,0,0,0,.56.56h6.34a.57.57,0,0,1,.56.57v1a.56.56,0,0,1-.56.57H73.4a.56.56,0,0,0-.56.56v6.14a.56.56,0,0,1-.57.56h-2.6a.57.57,0,0,1-.57-.56V58.64A.56.56,0,0,0,68.54,58.08Z"/></g></g></svg>