<svg xmlns="http://www.w3.org/2000/svg" viewBox="0 0 140 99.79"><defs><style>.cls-1{fill:transparent;}.cls-2,.cls-3{fill:#f4930e;}.cls-2{stroke:#f4930e;stroke-miterlimit:10;}</style></defs><g id="レイヤー_2" data-name="レイヤー 2"><g id="レイヤー_2-2" data-name="レイヤー 2"><rect class="cls-1" width="140" height="99.79"/><path class="cls-2" d="M99.25,93.22H31.46a.85.85,0,0,1-.85-.85V7.93a.86.86,0,0,1,.85-.86H99.25a.86.86,0,0,1,.85.86V92.37A.85.85,0,0,1,99.25,93.22ZM32.31,91.51H98.39V8.78H32.31Z"/><path class="cls-2" d="M93.55,87.53H37.16a.87.87,0,0,1-.86-.86v-73a.86.86,0,0,1,.86-.85H93.55a.86.86,0,0,1,.86.85V86.67A.87.87,0,0,1,93.55,87.53ZM38,85.82H92.7V14.48H38Z"/><path class="cls-3" d="M115.13,10.91a1,1,0,0,0-1,1V18l-4.6,5.82h-3.35a1,1,0,0,0,0,2.05h3.35l4.6,5.83v6.06a1,1,0,0,0,2,0V31.7l4.6-5.83h4.09a1,1,0,0,0,0-2.05h-4.09L116.16,18V11.94A1,1,0,0,0,115.13,10.91ZM119,24.85l-3.82,4.84-3.82-4.84L115.13,20Z"/><path class="cls-3" d="M123.45,45.24a1,1,0,0,0-1,1v3.27l-2.36,3h-2.88a1,1,0,0,0,0,2h2.88l2.36,3v3.27a1,1,0,0,0,2,0V57.58l2.37-3h2.87a1,1,0,1,0,0-2h-2.87l-2.37-3V46.26A1,1,0,0,0,123.45,45.24ZM125,53.55l-1.59,2-1.59-2,1.59-2Z"/><path class="cls-3" d="M103.31,25.87a1,1,0,1,0,0-2.05H103a1,1,0,0,0,0,2.05Z"/><path class="cls-3" d="M128,25.87a1,1,0,1,0,0-2.05h-.28a1,1,0,0,0,0,2.05Z"/><path class="cls-3" d="M115.13,10.05a1,1,0,0,0,1-1V8.74a1,1,0,0,0-2,0V9A1,1,0,0,0,115.13,10.05Z"/><path class="cls-3" d="M115.13,42.05a1,1,0,0,0,1-1v-.28a1,1,0,1,0-2,0V41A1,1,0,0,0,115.13,42.05Z"/><path class="cls-3" d="M18.74,69.18a1,1,0,0,0-1,1v3.27l-2.37,3H12.47a1,1,0,0,0,0,2h2.87l2.37,3v3.26a1,1,0,1,0,2.05,0V81.53l2.37-3H25a1,1,0,1,0,0-2H22.13l-2.37-3V70.21A1,1,0,0,0,18.74,69.18Zm1.59,8.32-1.59,2-1.59-2,1.59-2Z"/></g></g></svg>