<svg xmlns="http://www.w3.org/2000/svg" viewBox="0 0 140 99.79"><defs><style>.cls-1{fill:transparent;}.cls-2,.cls-3{fill:#f4930e;}.cls-2{stroke:#f4930e;stroke-miterlimit:10;}</style></defs><g id="レイヤー_2" data-name="レイヤー 2"><g id="レイヤー_2-2" data-name="レイヤー 2"><rect class="cls-1" width="140" height="99.79"/><path class="cls-2" d="M109.62,93.76H33.1a1,1,0,0,1-1-1V7.27a1,1,0,0,1,1-1h76.52a1,1,0,0,1,1,1V92.8A1,1,0,0,1,109.62,93.76ZM34.06,91.83h74.6V8.23H34.06Z"/><path class="cls-2" d="M103.19,87.33H39.53a1,1,0,0,1-1-1V13.7a1,1,0,0,1,1-1h63.66a1,1,0,0,1,1,1V86.37A1,1,0,0,1,103.19,87.33ZM40.49,85.4h61.74V14.66H40.49Z"/><path class="cls-3" d="M89.8,46.48a1,1,0,0,1-.66-1.67l11.5-10.93L89.2,24.73a1,1,0,0,1,1.21-1.51l12.3,9.85a1,1,0,0,1,.06,1.45L90.47,46.21A1,1,0,0,1,89.8,46.48Z"/><path class="cls-3" d="M92.86,47.27H89.19a1,1,0,0,1-.73-.33,1,1,0,0,1-.23-.77l.62-4.3a1,1,0,1,1,1.91.27l-.46,3.21h2.56a1,1,0,0,1,0,1.92Z"/><path class="cls-3" d="M89.8,60.63A1,1,0,0,1,89.14,59L100.64,48l-2.51-2a1,1,0,0,1,1.2-1.5l3.38,2.7a1,1,0,0,1,.06,1.45L90.47,60.36A1,1,0,0,1,89.8,60.63Z"/><path class="cls-3" d="M92.86,61.42H89.19a1,1,0,0,1-.73-.33,1,1,0,0,1-.23-.77L88.85,56a1,1,0,1,1,1.91.28l-.46,3.2h2.56a1,1,0,0,1,0,1.93Z"/><path class="cls-3" d="M89.8,73.55a1,1,0,0,1-.66-1.66L100.64,61l-2.51-2a1,1,0,0,1,1.2-1.51l3.38,2.7a1,1,0,0,1,.36.71.94.94,0,0,1-.3.74l-12.3,11.7A1,1,0,0,1,89.8,73.55Z"/><path class="cls-3" d="M92.86,74.28H89.19a1,1,0,0,1-.73-.33,1,1,0,0,1-.23-.77l.62-4.31a1,1,0,0,1,1.91.28l-.46,3.2h2.56a1,1,0,0,1,0,1.93Z"/><path class="cls-3" d="M72.67,59.69a1,1,0,0,1-.71-.31A1,1,0,0,1,72,58a12.67,12.67,0,0,0,0-18.6A1,1,0,1,1,73.35,38a14.6,14.6,0,0,1,0,21.43A1,1,0,0,1,72.67,59.69Z"/><path class="cls-3" d="M77.07,64.1a1,1,0,0,1-.66-1.66A18.9,18.9,0,0,0,76.47,35a1,1,0,1,1,1.34-1.39,20.83,20.83,0,0,1-.07,30.19A1,1,0,0,1,77.07,64.1Z"/><path class="cls-3" d="M67.78,70.42h-4.5a1,1,0,0,1-1-1V64.32a1,1,0,1,1,1.93,0V68.5h2.58V33.13H64.24v25.4a1,1,0,0,1-1.93,0V32.16a1,1,0,0,1,1-1h4.5a1,1,0,0,1,1,1v37.3A1,1,0,0,1,67.78,70.42Z"/><path class="cls-3" d="M62.7,70.18a.94.94,0,0,1-.66-.26L49.4,58.21H42.7a1,1,0,0,1-1-1V44.38a1,1,0,0,1,1-1h6.71L62.06,32.19a1,1,0,0,1,1.28,1.44L50.42,45.1a1,1,0,0,1-.65.25h-6.1V56.28h6.1a1,1,0,0,1,.66.25l12.92,12a1,1,0,0,1,0,1.36A.93.93,0,0,1,62.7,70.18Z"/></g></g></svg>